{"title":"A Garfield Christmas (1987) / DVDrip [x264-AC3/2CH-MKV]","uid":11621274,"size":385051685,"categoryP":"video","categoryS":"tv_shows","magnet":"?xt=urn:btih:b5e754ffd47f2503be855326718308b5494a70c4&amp;dn=A+Garfield+Christmas+%281987%29+%2F+DVDrip+%5Bx264-AC3%2F2CH-MKV%5D&amp;tr=udp%3A%2F%2Ftracker.openbittorrent.com%3A80&amp;tr=udp%3A%2F%2Fopen.demonii.com%3A1337&amp;tr=udp%3A%2F%2Ftracker.coppersurfer.tk%3A6969&amp;tr=udp%3A%2F%2Fexodus.desync.com%3A6969","seeders":1,"leechers":0,"uploader":"ClamNutz","files":-1,"time":1417557108,"description":"Garfield, Jon, and Odie go to Jon's grandmother's house for Christmas, where Garfield finds a present for Grandma.\n &lt;a href=&quot;\nhttp://www.imdb.com/title/tt0302596/&quot; rel=&quot;nofollow&quot; target=&quot;_NEW&quot;&gt;\nhttp://www.imdb.com/title/tt0302596/&lt;/a&gt;\n\nScreens:\n &lt;a href=&quot;\nhttp://bayimg.com/KaiACaaga&quot; rel=&quot;nofollow&quot; target=&quot;_NEW&quot;&gt;\nhttp://bayimg.com/KaiACaaga&lt;/a&gt; &lt;a href=&quot;\nhttp://bayimg.com/KaiaHaAGA&quot; rel=&quot;nofollow&quot; target=&quot;_NEW&quot;&gt;\nhttp://bayimg.com/KaiaHaAGA&lt;/a&gt; &lt;a href=&quot;\nhttp://bayimg.com/kaiAjaAGa&quot; rel=&quot;nofollow&quot; target=&quot;_NEW&quot;&gt;\nhttp://bayimg.com/kaiAjaAGa&lt;/a&gt;\n\nVideo\nID                                       : 1\nFormat                                   : AVC\nFormat/Info                              : Advanced Video Codec\nFormat profile                           : &lt;a class=&quot;__cf_email__&quot; href=&quot;/cdn-cgi/l/email-protection&quot; data-cfemail=&quot;521f333b3c121e667c62&quot;&gt;[email&amp;#160;protected]&lt;/a&gt;&lt;script cf-hash='f9e31' type=&quot;text/javascript&quot;&gt;\n/* &lt;![CDATA[ */!function(){try{var t=&quot;currentScript&quot;in document?document.currentScript:function(){for(var t=document.getElementsByTagName(&quot;script&quot;),e=t.length;e--;)if(t[e].getAttribute(&quot;cf-hash&quot;))return t[e]}();if(t&amp;&amp;t.previousSibling){var e,r,n,i,c=t.previousSibling,a=c.getAttribute(&quot;data-cfemail&quot;);if(a){for(e=&quot;&quot;,r=parseInt(a.substr(0,2),16),n=2;a.length-n;n+=2)i=parseInt(a.substr(n,2),16)^r,e+=String.fromCharCode(i);e=document.createTextNode(e),c.parentNode.replaceChild(e,c)}}}catch(u){}}();/* ]]&gt; */&lt;/script&gt;\nFormat settings, CABAC                   : Yes\nFormat settings, ReFrames                : 4 frames\nCodec ID                                 : V_MPEG4/ISO/AVC\nDuration                                 : 23mn 35s\nBit rate                                 : 1 899 Kbps\nWidth                                    : 708 pixels\nHeight                                   : 480 pixels\nDisplay aspect ratio                     : 4:3\nOriginal display aspect ratio            : 4:3\nFrame rate mode                          : Constant\nFrame rate                               : 23.976 fps\nColor space                              : YUV\nChroma subsampling                       : 4:2:0\nBit depth                                : 8 bits\nScan type                                : Progressive\nBits/(Pixel*Frame)                       : 0.233\nStream size                              : 320 MiB (89%)\nWriting library                          : x264 core 142 r2479 dd79a61\nDefault                                  : Yes\nForced                                   : No\nColor primaries                          : BT.601 NTSC\nTransfer characteristics                 : BT.709\nMatrix coefficients                      : BT.601\n\nAudio\nID                                       : 2\nFormat                                   : AC-3\nFormat/Info                              : Audio Coding 3\nMode extension                           : CM (complete main)\nFormat settings, Endianness              : Big\nCodec ID                                 : A_AC3\nDuration                                 : 23mn 35s\nBit rate mode                            : Constant\nBit rate                                 : 192 Kbps\nChannel(s)                               : 2 channels\nChannel positions                        : Front: L R\nSampling rate                            : 48.0 KHz\nBit depth                                : 16 bits\nCompression mode                         : Lossy\nStream size                              : 32.4 MiB (9%)\nTitle                                    : Stereo\nLanguage                                 : English\nDefault                                  : Yes\nForced                                   : No\n\nMenu\n00:00:00.000                             : :Chapter 1\n00:06:58.126                             : :Chapter 2\n00:15:35.476                             : :Chapter 3","torrent":{"xt":"urn:btih:b5e754ffd47f2503be855326718308b5494a70c4","amp;dn":"A+Garfield+Christmas+%281987%29+%2F+DVDrip+%5Bx264-AC3%2F2CH-MKV%5D","amp;tr":["udp%3A%2F%2Ftracker.openbittorrent.com%3A80","udp%3A%2F%2Fopen.demonii.com%3A1337","udp%3A%2F%2Ftracker.coppersurfer.tk%3A6969","udp%3A%2F%2Fexodus.desync.com%3A6969"],"infoHash":"b5e754ffd47f2503be855326718308b5494a70c4","infoHashBuffer":{"type":"Buffer","data":[181,231,84,255,212,127,37,3,190,133,83,38,113,131,8,181,73,74,112,196]},"announce":[],"urlList":[]}}